<?xml version="1.0" encoding="UTF-8"?><svg id="Layer_1" width="18" height="18" xmlns="http://www.w3.org/2000/svg" viewBox="0 0 750.13 742.97"><defs><style>.cls-1{stroke-width:0px;}</style></defs><g id="Solid"><path class="cls-1" d="M318.13,214.97h-18.31c-10.31,5.67-22.15,8.89-34.72,8.89h-41.24v41.24c0,5.21-.55,10.3-1.61,15.2,2.47-.86,5.12-1.33,7.88-1.33,13.25,0,24,10.75,24,24-.01,13.25-10.75,23.99-24,24-10.47,0-19.37-6.71-22.65-16.06-7.28,8.88-16.62,16-27.29,20.62,6.02,4.35,9.94,11.44,9.94,19.44-.01,13.25-10.75,23.99-24,24-13.25,0-24-10.75-24-24,0-5.08,1.58-9.8,4.29-13.68-25.66-1.78-47.68-17.01-59.05-38.66-25.9,34.68-41.24,77.72-41.24,124.34h480c0-114.88-93.12-208-208-208ZM286.13,374.97c-13.25,0-24-10.75-24-24s10.75-24,24-24,24,10.75,24,24c-.01,13.25-10.75,23.99-24,24ZM342.13,326.97c-13.25,0-24-10.75-24-24s10.75-24,24-24,24,10.75,24,24c-.01,13.25-10.75,23.99-24,24ZM406.13,374.97c-13.25,0-24-10.75-24-24s10.75-24,24-24,24,10.75,24,24c-.01,13.25-10.75,23.99-24,24ZM542.13,454.97H30.13c-8.84,0-16,7.16-16,16v32c0,8.84,7.16,16,16,16h512c8.84,0,16-7.16,16-16v-32c0-8.84-7.16-16-16-16ZM428.62,662.97l-25.61,30.73c-16.98,20.37-47.25,23.11-67.61,6.14-2.22-1.85-4.27-3.9-6.12-6.12l-25.63-30.75H46.13v32c0,26.51,21.49,48,48,48h384c26.51,0,48-21.49,48-48v-32h-97.51ZM249.25,597.7c-10.77-13.04-13.91-30.78-8.26-46.73H54.13c-22.09,0-40,17.91-40,40s17.91,40,40,40h222.85l-27.73-33.27ZM518.13,550.97h-26.86c5.65,15.94,2.52,33.68-8.25,46.72l-27.73,33.28h62.84c22.09,0,40-17.91,40-40s-17.91-40-40-40ZM460.62,560.19c-2.63-5.63-8.28-9.22-14.49-9.22h-160c-8.84,0-16,7.17-16,16,0,3.75,1.31,7.37,3.71,10.25l80,96c5.67,6.79,15.76,7.7,22.55,2.03.73-.61,1.41-1.29,2.03-2.03l80-96c3.97-4.77,4.83-11.41,2.2-17.03ZM670.14,6.97h-64.01c-1.31,0-2.61.16-3.88.48l-256,64c-7.12,1.78-12.12,8.18-12.12,15.52h352V22.97c0-8.83-7.16-16-15.99-16ZM718.13,278.97h-208.33c24.45,32.3,40.23,70.32,45.84,110.44,21.56,14.86,34.46,39.37,34.49,65.56v64c.03,12.19-2.76,24.22-8.14,35.16,16.81,36.17,6.99,79.15-23.86,104.43v36.41c-.06,17.37-5.83,34.23-16.41,48h114.41c25.29-.05,46.22-19.67,47.9-44.91l27.13-420.44c-4.29.9-8.65,1.35-13.03,1.35ZM718.13,118.97h-388.38c4.95,9.78,7.73,20.83,7.73,32.51s-3,23.57-8.3,33.62c12.66,1.23,25.26,3,37.78,5.31,42.51,7.81,81.96,27.41,113.87,56.56h237.3c17.66-.02,31.98-14.34,32-32v-64c-.02-17.66-14.34-31.98-32-32Z" fill="currentColor"/></g><g id="Page-1"><g id="Icon-Set-Filled"><g id="plus"><path class="cls-1" d="M302.98,151.48c0,13.14-6.69,24.71-16.84,31.51h-.01c-6.02,4.02-13.25,6.37-21.03,6.37h-75.74v75.74c0,20.92-16.95,37.87-37.87,37.87-19.46,0-35.5-14.68-37.63-33.59-.16-1.4-.24-2.83-.24-4.28v-75.74H37.88c-20.92,0-37.88-16.95-37.88-37.88s16.96-37.87,37.88-37.87h75.74V37.87c0-20.92,16.96-37.87,37.87-37.87s37.87,16.95,37.87,37.87v75.74h75.74c8.95,0,17.18,3.1,23.66,8.3,8.67,6.93,14.22,17.6,14.22,29.57Z" fill="currentColor"/></g></g></g></svg>